<?xml version="1.0" encoding="iso-8859-1"?>
<!-- Generator: Adobe Illustrator 19.0.0, SVG Export Plug-In . SVG Version: 6.00 Build 0)  -->
<svg version="1.1" id="Layer_1" xmlns="http://www.w3.org/2000/svg" xmlns:xlink="http://www.w3.org/1999/xlink" x="0px" y="0px"
	 viewBox="0 0 460 460" style="enable-background:new 0 0 460 460;" xml:space="preserve">
<g id="XMLID_2_">
	<polygon id="XMLID_4_" style="fill:#A3B1C4;" points="170,160 170,300 265,300 255,190 	"/>
	<polygon id="XMLID_5_" style="fill:#8799B3;" points="340,220 255,190 255,300 350,300 	"/>
	<polygon id="XMLID_6_" style="fill:#A3B1C4;" points="0,160 0,300 95,300 85,190 	"/>
	<polygon id="XMLID_7_" style="fill:#8799B3;" points="170,220 85,190 85,300 170,300 	"/>
	<polygon id="XMLID_8_" style="fill:#6B81A1;" points="340,0 340,290 0,290 0,460 400,460 410,230 400,0 	"/>
	<rect id="XMLID_34_" x="250" y="320" style="fill:#354A67;" width="90" height="140"/>
	<polygon id="XMLID_9_" style="fill:#FFFFFF;" points="30,320 30,410 125,410 135,365 125,320 	"/>
	<rect id="XMLID_10_" x="125" y="320" style="fill:#FFEAC3;" width="95" height="90"/>
	<rect id="XMLID_11_" x="400" style="fill:#466289;" width="60" height="460"/>
</g>
<g>
</g>
<g>
</g>
<g>
</g>
<g>
</g>
<g>
</g>
<g>
</g>
<g>
</g>
<g>
</g>
<g>
</g>
<g>
</g>
<g>
</g>
<g>
</g>
<g>
</g>
<g>
</g>
<g>
</g>
</svg>
